# xmcd
# Track frame offsets:
# 150
# 19235
# 45354
# 65152
#
# Disc length: 1190 seconds
# Revision: 0
# Processed by: cddbd v1.4PL0 Copyright (c) Steve Scherf et al.
# Submitted via: VisiTrax 2.9.5.181 - For more info visit www.synapsa.com
#
DISCID=2f04a404
DTITLE=Freeaked out hippies - Born under a bad sign
DYEAR=1900
DGENRE=Blues/Rock
TTITLE0=Cellar man
TTITLE1=The prize
TTITLE2=Car
TTITLE3=Born under a bad sign
EXTD=
EXTT0=
EXTT1=
EXTT2=
EXTT3=
PLAYORDER=
